Coordinates
version=1
nRows=11
nColumns=63
inDegrees=yes

Units are S.I. units (second, meters, Newtons, ...)
If the header above contains a line with 'inDegrees', this indicates whether rotational values are in degrees (yes) or radians (no).

endheader
time	pelvis_tilt	pelvis_list	pelvis_rotation	pelvis_tx	pelvis_ty	pelvis_tz	hip_flexion_r	hip_adduction_r	hip_rotation_r	knee_angle_r	knee_angle_r_beta	ankle_angle_r	subtalar_angle_r	mtp_angle_r	hip_flexion_l	hip_adduction_l	hip_rotation_l	knee_angle_l	knee_angle_l_beta	ankle_angle_l	subtalar_angle_l	mtp_angle_l	L5_S1_Flex_Ext	L5_S1_Lat_Bending	L5_S1_axial_rotation	L4_L5_Flex_Ext	L4_L5_Lat_Bending	L4_L5_axial_rotation	L3_L4_Flex_Ext	L3_L4_Lat_Bending	L3_L4_axial_rotation	L2_L3_Flex_Ext	L2_L3_Lat_Bending	L2_L3_axial_rotation	L1_L2_Flex_Ext	L1_L2_Lat_Bending	L1_L2_axial_rotation	L1_T12_Flex_Ext	L1_T12_Lat_Bending	L1_T12_axial_rotation	Abs_r3	Abs_r2	Abs_r1	Abs_t1	Abs_t2	neck_flexion	neck_bending	neck_rotation	arm_flex_r	arm_add_r	arm_rot_r	elbow_flex_r	pro_sup_r	wrist_flex_r	wrist_dev_r	arm_flex_l	arm_add_l	arm_rot_l	elbow_flex_l	pro_sup_l	wrist_flex_l	wrist_dev_l
      0.88000000	     -4.55943343	     -3.94306323	     96.57701722	      0.28088595	      0.74693750	      0.80277402	     -6.04567238	      1.52290905	    -31.13808611	      1.56784130	      0.02736399	      5.63787114	      3.70829304	      0.00000000	     -3.62904534	     -1.14716902	      1.56803736	      0.33208678	      0.00579601	     31.39950621	      8.31100938	      0.00000000	      0.14856037	      0.26963531	     -0.64333789	      0.27589146	      0.35861497	     -0.68354651	      0.24406983	      0.65559130	     -0.68354651	      0.16978965	      0.65559130	     -0.56292065	      0.13795316	      0.54984033	     -0.52271203	      0.08488739	      0.41766510	     -0.48250342	      1.06115186	      3.05016860	     -3.57805233	      0.00000000	      0.00000000	     20.91362663	      3.85541130	      5.84897741	     21.50192628	    -17.49615087	     79.99797282	     55.40996755	     27.44339063	      8.92402897	     26.51905568	     10.45426461	     -9.51786987	     49.87140196	     50.76054320	     85.27948781	     13.45462474	      3.42649003
      0.90000000	     -4.43775902	     -3.89381720	     96.88640114	      0.28058568	      0.74688738	      0.80249295	     -6.13727948	      1.72250817	    -30.63035820	      1.41251776	      0.02465309	      6.89923241	      3.83402075	      0.00000000	     -3.67323780	     -1.31225437	      1.71624235	      0.33416431	      0.00583227	     31.39344700	      8.37015298	      0.00000000	      0.14045364	      0.28070346	     -0.68110128	      0.26083646	      0.37333560	     -0.72367011	      0.23075129	      0.68250239	     -0.72367011	      0.16052447	      0.68250239	     -0.59596362	      0.13042525	      0.57241050	     -0.55339479	      0.08025521	      0.43480966	     -0.51082596	      1.00324632	      3.17537368	     -3.78808100	      0.00000000	      0.00000000	     20.33908241	      3.78352285	      5.76411494	     21.40120242	    -17.52372888	     80.11691129	     55.31868692	     27.50708582	      8.79806829	     26.63003659	     10.43957937	     -9.39302528	     49.79900488	     50.74924627	     85.26037169	     13.34194668	      3.20329102
      0.92000000	     -4.36901736	     -3.83520800	     97.23797123	      0.28014451	      0.74681061	      0.80221985	     -6.25891849	      1.84993424	    -29.74491072	      1.22696746	      0.02141462	      8.45180424	      4.05458001	      0.00000000	     -3.71491427	     -1.42158555	      1.96861331	      0.34867414	      0.00608551	     31.46068295	      8.48314827	      0.00000000	      0.13251040	      0.28707123	     -0.73132043	      0.24608507	      0.38180473	     -0.77702796	      0.21770134	      0.69798498	     -0.77702796	      0.15144614	      0.69798498	     -0.63990538	      0.12304916	      0.58539565	     -0.59419785	      0.07571644	      0.44467333	     -0.54849032	      0.94650855	      3.24740713	     -4.06738485	      0.00000000	      0.00000000	     19.37198848	      3.63802702	      5.66063286	     21.34121266	    -17.56838994	     80.32293345	     55.29986508	     27.62896419	      8.66058577	     26.86149170	     10.39278899	     -9.27053478	     49.67044349	     50.73205612	     85.19268236	     13.19438793	      2.88487361
      0.94000000	     -4.43527707	     -3.83240744	     97.37852652	      0.27998052	      0.74667043	      0.80155095	     -6.43928892	      1.91045557	    -25.14442585	      0.78051455	      0.01362255	      8.84470431	     -0.74390441	      0.00000000	     -3.76523319	     -1.36055913	      3.17729131	      0.33470888	      0.00584177	     31.38232665	      7.11567361	      0.00000000	      0.14261082	      0.28354511	     -0.78277365	      0.26484255	      0.37711500	     -0.83169700	      0.23429531	      0.68941159	     -0.83169700	      0.16298991	      0.68941159	     -0.68492694	      0.13242841	      0.57820520	     -0.63600359	      0.08148782	      0.43921138	     -0.58708024	      1.01865482	      3.20751905	     -4.35355221	      0.00000000	      0.00000000	     17.96618710	      3.41806682	      6.07718550	     21.43122778	    -17.43978956	     80.82903533	     55.27865970	     28.60047691	      8.32770528	     27.74486409	     10.14951636	     -9.32533564	     49.77655046	     50.64350665	     85.17086834	     12.18571289	      0.87058693
      0.96000000	     -4.38747725	     -3.81299640	     97.60502906	      0.27968676	      0.74661715	      0.80132037	     -6.46261241	      1.97011242	    -24.36597455	      0.72168195	      0.01259573	      9.94483734	     -0.74660358	      0.00000000	     -3.76173301	     -1.43027860	      3.36086445	      0.33686054	      0.00587933	     31.50716003	      7.17015855	      0.00000000	      0.14151997	      0.28906179	     -0.81668891	      0.26281674	      0.38445217	     -0.86773197	      0.23250317	      0.70282482	     -0.86773197	      0.16174318	      0.70282482	     -0.71460280	      0.13141545	      0.58945479	     -0.66355974	      0.08086451	      0.44775671	     -0.61251669	      1.01086302	      3.26992473	     -4.54217873	      0.00000000	      0.00000000	     16.83100560	      3.36914237	      6.23195580	     21.44354775	    -17.46209942	     81.11556106	     55.26566508	     28.89456158	      8.40612294	     28.09132931	     10.07937812	     -9.20550778	     49.63413834	     50.59597673	     85.20179173	     12.38819392	      0.89378989
      0.98000000	     -4.32111937	     -3.81423987	     97.82084232	      0.27937693	      0.74650237	      0.80111905	     -6.45842427	      2.04920105	    -24.02394095	      0.73104880	      0.01275921	     10.50650536	     -0.76373569	      0.00000000	     -3.73408480	     -1.51578699	      3.43842934	      0.34010755	      0.00593600	     31.64063928	      7.40062651	      0.00000000	      0.14071674	      0.30019346	     -0.86816924	      0.26132507	      0.39925731	     -0.92242982	      0.23118354	      0.72989039	     -0.92242982	      0.16082517	      0.72989039	     -0.75964809	      0.13066957	      0.61215451	     -0.70538751	      0.08040555	      0.46499968	     -0.65112693	      1.00512564	      3.39584851	     -4.82849686	      0.00000000	      0.00000000	     15.94069165	      3.52350470	      6.92809322	     21.48460011	    -17.43663891	     81.19029752	     55.12524367	     30.29664506	      9.47772800	     28.46201429	      9.82190371	     -9.04072109	     48.95477937	     50.55295958	     85.68841085	     13.17147273	      0.99388404
      1.00000000	     -4.27322232	     -3.80302677	     97.92045935	      0.27924476	      0.74637368	      0.80095419	     -6.45848102	      2.09075247	    -24.66180444	      0.82570494	      0.01441127	     10.68004402	      0.15021504	      0.00000000	     -3.73895227	     -1.57664642	      3.93535016	      0.33674643	      0.00587733	     31.71878012	      6.94368179	      0.00000000	      0.13674733	      0.30532191	     -0.89700473	      0.25395347	      0.40607814	     -0.95306752	      0.22466219	      0.74235968	     -0.95306752	      0.15628852	      0.74235968	     -0.78487913	      0.12698357	      0.62261243	     -0.72881634	      0.07813742	      0.47294363	     -0.67275354	      0.97677250	      3.45386248	     -4.98887118	      0.00000000	      0.00000000	     15.33519347	      3.63484896	      7.32499293	     21.55194129	    -17.38517211	     81.12604879	     54.87713560	     33.93586111	     11.64210895	     27.73399444	      9.55090852	     -8.85354179	     48.01609406	     50.55980093	     86.05040245	     14.71791196	      2.02570409
      1.02000000	     -4.27322232	     -3.80858037	     97.95572886	      0.27932097	      0.74618377	      0.80109872	     -6.45806627	      2.09698178	    -24.68564384	      0.88135424	      0.01538253	     10.57802117	      0.17342720	      0.00000000	     -3.71053878	     -1.57835059	      3.91744482	      0.34210885	      0.00597093	     31.78397453	      6.92409886	      0.00000000	      0.12951042	      0.30050362	     -0.89411492	      0.24051380	      0.39966982	     -0.94999711	      0.21277267	      0.73064451	     -0.94999711	      0.14801746	      0.73064451	     -0.78235056	      0.12026338	      0.61278699	     -0.72646838	      0.07400225	      0.46548011	     -0.67058619	      0.92507998	      3.39935707	     -4.97279898	      0.00000000	      0.00000000	     15.26941246	      3.63002121	      7.35050661	     21.58992304	    -17.37318719	     81.09926988	     54.92608777	     33.93777523	     11.66345685	     27.72566304	      9.51072295	     -8.85345069	     48.04762270	     50.56741597	     86.05018657	     14.73856023	      2.03323721
      1.04000000	     -4.19219953	     -3.74980412	     97.92712166	      0.27925757	      0.74615860	      0.80081522	     -6.42629436	      2.14407563	    -25.61592472	      1.11189472	      0.01940622	     10.11813062	      0.79938380	      0.00000000	     -3.78672720	     -1.66889545	      3.91379935	      0.33336466	      0.00581831	     31.94811813	      6.88628252	      0.00000000	      0.13890569	      0.31114993	     -0.88177962	      0.25796175	      0.41382940	     -0.93689084	      0.22820815	      0.75652993	     -0.93689084	      0.15875531	      0.75652993	     -0.77155717	      0.12898782	      0.63449693	     -0.71644594	      0.07937071	      0.48197124	     -0.66133471	      0.99218942	      3.51979019	     -4.90419370	      0.00000000	      0.00000000	     14.72145409	      3.72817639	      7.88703173	     21.45814914	    -17.44673880	     80.94891947	     54.89683726	     34.01375476	     11.94463681	     27.54131499	      9.58058746	     -8.76904942	     48.32485270	     50.42788643	     85.83473660	     15.52746094	      2.51447156
      1.06000000	     -4.12681403	     -3.74913828	     97.82989034	      0.27883379	      0.74604095	      0.80142449	     -5.83118403	      1.63300371	    -33.54100328	      2.57353080	      0.04491659	     12.19043323	     11.59118867	      0.00000000	     -3.75900574	     -1.68689466	      4.43986197	      0.33586834	      0.00586201	     31.92735745	      6.06550007	      0.00000000	      0.13648639	      0.32046570	     -0.87602162	      0.25346887	      0.42621938	     -0.93077297	      0.22423349	      0.77918030	     -0.93077297	      0.15599029	      0.77918030	     -0.76651892	      0.12674126	      0.65349366	     -0.71176756	      0.07798832	      0.49640137	     -0.65701621	      0.97490862	      3.62517210	     -4.87216944	      0.00000000	      0.00000000	     15.03028565	      3.55311204	      7.89520198	     21.55538002	    -17.42287574	     80.71785622	     54.59567268	     36.91343080	     13.59327913	     26.95119888	      9.55530363	     -8.50877147	     47.96132020	     50.29347263	     84.78134104	     16.59657460	      3.75840507
      1.08000000	     -4.10187072	     -3.65062236	     97.71287808	      0.27896519	      0.74589751	      0.80165340	     -5.75857131	      1.58664965	    -32.53638538	      2.84268492	      0.04961421	     12.66045083	     10.50410008	      0.00000000	     -3.79093641	     -1.71214729	      4.20118395	      0.50019355	      0.00873002	     31.97257893	      6.07958040	      0.00000000	      0.13491487	      0.31691986	     -0.85185846	      0.25055040	      0.42150342	     -0.90509961	      0.22165163	      0.77055895	     -0.90509961	      0.15419420	      0.77055895	     -0.74537615	      0.12528194	      0.64626298	     -0.69213500	      0.07709035	      0.49090887	     -0.63889384	      0.96368339	      3.58506086	     -4.73778118	      0.00000000	      0.00000000	     15.06088349	      3.34978188	      7.62252442	     21.83039467	    -17.40127185	     81.51850296	     54.44228218	     37.39380253	     13.61200286	     25.49569685	      9.84854429	     -8.63965308	     49.02877145	     50.23891740	     82.04746805	     16.50071995	      4.42765505
